<svg id="Layer_1" data-name="Layer 1" xmlns="http://www.w3.org/2000/svg" xmlns:xlink="http://www.w3.org/1999/xlink" viewBox="0 0 715.43 50"><defs><style>.cls-1{fill:#f9ec31;}.cls-2{fill:url(#linear-gradient);}.cls-3{fill:#fff;}.cls-4{fill:url(#linear-gradient-2);}</style><linearGradient id="linear-gradient" x1="26.99" y1="13.96" x2="26.99" y2="37.96" gradientUnits="userSpaceOnUse"><stop offset="0" stop-color="#8cc63f"/><stop offset="1" stop-color="#009245"/></linearGradient><linearGradient id="linear-gradient-2" x1="231.12" y1="13" x2="231.12" y2="37" gradientUnits="userSpaceOnUse"><stop offset="0" stop-color="#29abe2"/><stop offset="1" stop-color="#0071bc"/></linearGradient></defs><title>Political Frame 07</title><rect class="cls-1" width="715.43" height="50"/><rect class="cls-2" x="14.99" y="13.96" width="24" height="24" rx="6.97"/><path class="cls-3" d="M318.12,975.39a5.94,5.94,0,0,0-.29-1.5,6.4,6.4,0,0,0-1.35-2.36,6.58,6.58,0,0,0-3.45-2,6.65,6.65,0,0,0-5.24,1.06,6.58,6.58,0,0,0-2.2,2.67,6.13,6.13,0,0,0-.5,1.73,6.38,6.38,0,0,0,0,1.45,6.51,6.51,0,0,0,.75,2.58l0,.1a.22.22,0,0,1,0,.21c-.3,1.07-.59,2.15-.89,3.22,0,0,0,0,0,.07l.3-.08,2.17-.58,1-.24h.08a6.71,6.71,0,0,0,1.88.67,6.42,6.42,0,0,0,1.75.09,6.53,6.53,0,0,0,5.38-3.69,6.42,6.42,0,0,0,.59-1.91c0-.2,0-.41.05-.61v-.59A2.11,2.11,0,0,0,318.12,975.39Zm-2.21,3.82a5.32,5.32,0,0,1-3,2,5.21,5.21,0,0,1-1.67.16,5.41,5.41,0,0,1-2.15-.57l-.48-.27a.11.11,0,0,0-.1,0l-2,.52h0c0-.12.07-.24.1-.36l.44-1.61a.24.24,0,0,0,0-.08,6.23,6.23,0,0,1-.44-.8,5.18,5.18,0,0,1-.44-1.5,5,5,0,0,1,0-1.16,5.44,5.44,0,0,1,3.11-4.53,5.56,5.56,0,0,1,3.05-.48,5.47,5.47,0,0,1,2.81,1.24,5.41,5.41,0,0,1,1.36,1.75,5.1,5.1,0,0,1,.51,1.62A5.37,5.37,0,0,1,315.91,979.21Z" transform="translate(-284.57 -950)"/><path class="cls-3" d="M313.3,979.05a2.2,2.2,0,0,1-.84-.16,7.1,7.1,0,0,1-1.17-.5,6.52,6.52,0,0,1-1.61-1.3,8.83,8.83,0,0,1-1-1.29,2.76,2.76,0,0,1-.41-1,1.83,1.83,0,0,1,.51-1.65.59.59,0,0,1,.39-.23,2.17,2.17,0,0,1,.36,0h0a.29.29,0,0,1,.32.19l.18.44.38.9a.31.31,0,0,1,0,.28,2.37,2.37,0,0,1-.43.57.22.22,0,0,0,0,.31,4.47,4.47,0,0,0,1.89,1.79l.39.18a.25.25,0,0,0,.31-.07l.5-.63c.11-.14.18-.17.34-.1s.45.19.67.3l.67.33a.24.24,0,0,1,.16.26,2,2,0,0,1-.13.65.86.86,0,0,1-.31.37,1.72,1.72,0,0,1-.67.35c-.16,0-.33,0-.5.08Z" transform="translate(-284.57 -950)"/><path class="cls-4" d="M226.1,13h10.05a7,7,0,0,1,7,7V30a7,7,0,0,1-7,7H226.09a7,7,0,0,1-7-7V20A7,7,0,0,1,226.1,13Z"/><path class="cls-3" d="M516.88,982.63h-2.8v-7h-2.35V973h2.34v-2.05a4.09,4.09,0,0,1,.35-1.73,3,3,0,0,1,2.48-1.76,11.83,11.83,0,0,1,2.66,0l.09,0v2.41h-1.73a1,1,0,0,0-1,1.1c0,.64,0,1.29,0,2h2.67v2.69h-2.68Z" transform="translate(-284.57 -950)"/></svg>