<svg id="Layer_1" data-name="Layer 1" xmlns="http://www.w3.org/2000/svg" viewBox="0 0 1000 220.57"><defs><style>.cls-1{fill:#4f1000;}.cls-2{fill:#e5621a;}.cls-3{fill:#fff;}</style></defs><title>Political Frame 11</title><polygon class="cls-1" points="985.78 20.57 985.78 9.76 976.03 0 966.23 9.81 966.23 20.57 952.98 20.57 952.98 9.76 943.23 0 933.43 9.81 933.43 20.57 920.19 20.57 920.19 9.76 910.44 0 900.64 9.81 900.64 20.57 887.4 20.57 887.4 9.76 877.64 0 867.85 9.81 867.85 20.57 854.6 20.57 854.6 9.76 844.85 0 835.05 9.81 835.05 20.57 821.81 20.57 821.81 9.76 812.06 0 802.26 9.81 802.26 20.57 789.01 20.57 789.01 9.76 779.26 0 769.46 9.81 769.46 20.57 756.22 20.57 756.22 9.76 746.47 0 736.67 9.81 736.67 20.57 723.43 20.57 723.43 9.76 713.68 0 703.88 9.81 703.88 20.57 690.63 20.57 690.63 9.76 680.88 0 671.08 9.81 671.08 20.57 656.86 20.57 656.86 9.76 647.11 0.01 637.31 9.81 637.31 20.57 624.06 20.57 624.06 9.76 614.31 0.01 604.51 9.81 604.51 20.57 591.27 20.57 591.27 9.76 581.52 0.01 571.72 9.81 571.72 20.57 558.47 20.57 558.47 9.76 548.72 0.01 538.92 9.81 538.92 20.57 525.68 20.57 525.68 9.76 515.93 0.01 506.13 9.81 506.13 20.57 492.89 20.57 492.89 9.76 483.14 0.01 473.34 9.81 473.34 20.57 460.09 20.57 460.09 9.76 450.34 0.01 440.54 9.81 440.54 20.57 427.3 20.57 427.3 9.76 417.55 0.01 407.75 9.81 407.75 20.57 394.5 20.57 394.5 9.76 384.75 0.01 374.96 9.81 374.96 20.57 361.71 20.57 361.71 9.76 351.96 0.01 342.16 9.81 342.16 20.57 328.92 20.57 328.92 9.76 319.17 0.01 309.37 9.81 309.37 20.57 296.12 20.57 296.12 9.76 286.37 0.01 276.57 9.81 276.57 20.57 263.33 20.57 263.33 9.76 253.58 0.01 243.78 9.81 243.78 20.57 230.54 20.57 230.54 9.76 220.78 0.01 210.99 9.81 210.99 20.57 197.74 20.57 197.74 9.76 187.99 0.01 178.19 9.81 178.19 20.57 164.95 20.57 164.95 9.76 155.2 0.01 145.4 9.81 145.4 20.57 132.15 20.57 132.15 9.76 122.4 0.01 112.6 9.81 112.6 20.57 99.36 20.57 99.36 9.76 89.61 0.01 79.81 9.81 79.81 20.57 66.57 20.57 66.57 9.76 56.82 0.01 47.02 9.81 47.02 20.57 33.77 20.57 33.77 9.76 24.02 0.01 14.22 9.81 14.22 20.57 0 20.57 0 21.03 0 22.02 0 220.57 1000 220.57 1000 22.01 1000 21.03 1000 20.57 985.78 20.57"/><path class="cls-2" d="M764.7,900" transform="translate(0 -779.43)"/><path class="cls-2" d="M328.69,169.29h10.47a7.26,7.26,0,0,1,7.26,7.26V187a7.26,7.26,0,0,1-7.26,7.26H328.69a7.27,7.27,0,0,1-7.27-7.27V176.55A7.26,7.26,0,0,1,328.69,169.29Z"/><path class="cls-1" d="M335.17,969.17h-2.92v-7.26H329.8V959.1h2.44V957a4.31,4.31,0,0,1,.37-1.81,3.14,3.14,0,0,1,2.58-1.83,12.93,12.93,0,0,1,2.78,0l.08,0v2.52h-1.8a1,1,0,0,0-1.07,1.14c0,.67,0,1.34,0,2H338v2.8h-2.79Z" transform="translate(0 -779.43)"/><path class="cls-2" d="M363.69,169.29h10.47a7.27,7.27,0,0,1,7.27,7.27V187a7.26,7.26,0,0,1-7.26,7.26H363.69a7.26,7.26,0,0,1-7.26-7.26V176.55A7.26,7.26,0,0,1,363.69,169.29Z"/><path class="cls-1" d="M375.75,958a4.18,4.18,0,0,0-.51-1.73,3.56,3.56,0,0,0-2.53-1.77,10.08,10.08,0,0,0-1.82-.14c-1.06,0-2.13,0-3.19,0q-1.09,0-2.19.09a3.76,3.76,0,0,0-1.74.59,3.66,3.66,0,0,0-1.61,2.54,10.52,10.52,0,0,0-.11,1.77c0,.93,0,1.86,0,2.79a21.23,21.23,0,0,0,.09,2.52,4,4,0,0,0,.49,1.58,3.55,3.55,0,0,0,2.35,1.71,7.71,7.71,0,0,0,1.79.17c.72,0,1.45,0,2.17,0v0l2.49,0a6.47,6.47,0,0,0,1.57-.18,3.56,3.56,0,0,0,2.65-2.77,8.14,8.14,0,0,0,.16-1.78c0-.86,0-1.72,0-2.58S375.83,958.9,375.75,958Zm-1.19,5.22a6.78,6.78,0,0,1-.14,1.68,2.32,2.32,0,0,1-1.87,1.85,7.33,7.33,0,0,1-1.48.12h-2.16v0l-2.62,0a4.4,4.4,0,0,1-1.36-.22,2.31,2.31,0,0,1-1.51-1.78,6,6,0,0,1-.12-1.26c0-1.47,0-2.93,0-4.4a8.53,8.53,0,0,1,.11-1.51,2.4,2.4,0,0,1,1-1.59,2.66,2.66,0,0,1,1.22-.42,18.78,18.78,0,0,1,2.37-.09h2.9a8.62,8.62,0,0,1,1.6.12,2.36,2.36,0,0,1,2,2.1,13.34,13.34,0,0,1,.1,2C374.58,960.92,374.58,962.05,374.56,963.19Z" transform="translate(0 -779.43)"/><path class="cls-1" d="M369,957.67a3.54,3.54,0,1,0,3.5,3.61A3.54,3.54,0,0,0,369,957.67Zm-.09,5.83a2.3,2.3,0,1,1,2.34-2.28A2.29,2.29,0,0,1,368.88,963.5Z" transform="translate(0 -779.43)"/><path class="cls-1" d="M373.43,957.54a.83.83,0,1,1-.81-.83A.82.82,0,0,1,373.43,957.54Z" transform="translate(0 -779.43)"/><path class="cls-2" d="M398.69,169.29h10.47a7.27,7.27,0,0,1,7.27,7.27V187a7.26,7.26,0,0,1-7.26,7.26H398.69a7.26,7.26,0,0,1-7.26-7.26V176.55A7.26,7.26,0,0,1,398.69,169.29Z"/><path class="cls-1" d="M396.06,966.17a6.47,6.47,0,0,0,4.75-1.33l-.42,0a3.44,3.44,0,0,1-1.16-.42,3.28,3.28,0,0,1-1.22-1.31,3.12,3.12,0,0,1-.18-.42c0-.06,0-.07.05,0a2.93,2.93,0,0,0,.59,0,3.23,3.23,0,0,0,.76-.1h0l-.1,0a3.23,3.23,0,0,1-2.4-2.53,2.86,2.86,0,0,1-.06-.58c0-.07,0-.07.06,0a3.19,3.19,0,0,0,1.28.36s.06,0,.08,0,0,0,0,0a3.16,3.16,0,0,1-1.2-1.63,2.85,2.85,0,0,1-.16-.87,3.24,3.24,0,0,1,.41-1.72c0-.05,0,0,.07,0a9,9,0,0,0,.79.85,9.14,9.14,0,0,0,1.82,1.33,8.61,8.61,0,0,0,1.55.69,9,9,0,0,0,1.53.37c.29,0,.57.07.86.09.05,0,.07,0,.05-.06a3.08,3.08,0,0,1-.07-.68,2.89,2.89,0,0,1,.14-.92,3.18,3.18,0,0,1,2-2.11,3.08,3.08,0,0,1,1.7-.14,3.16,3.16,0,0,1,1.73.92.13.13,0,0,0,.12,0,6.38,6.38,0,0,0,1.93-.74.06.06,0,0,1,.05,0,3.29,3.29,0,0,1-.54,1,3.57,3.57,0,0,1-.84.76,6.35,6.35,0,0,0,1.8-.5c0,.06-.05.09-.07.13a7.11,7.11,0,0,1-1.07,1.19l-.41.32a.1.1,0,0,0-.05.09c0,.11,0,.22,0,.33a8.76,8.76,0,0,1-.25,2.11,9.31,9.31,0,0,1-.88,2.34,9.2,9.2,0,0,1-1.18,1.72,9,9,0,0,1-1.54,1.41,8.4,8.4,0,0,1-2.43,1.22,8.9,8.9,0,0,1-1.53.34,9.65,9.65,0,0,1-1.07.09,8,8,0,0,1-.85,0,8.38,8.38,0,0,1-1.92-.32,9,9,0,0,1-2-.79l-.5-.3Z" transform="translate(0 -779.43)"/><rect class="cls-3" x="433.95" y="181.42" width="72.91" height="1.97"/><rect class="cls-3" x="230.99" y="181.42" width="72.91" height="1.97"/><rect class="cls-2" y="210.57" width="1000" height="10"/></svg>