<svg id="Layer_1" data-name="Layer 1" xmlns="http://www.w3.org/2000/svg" xmlns:xlink="http://www.w3.org/1999/xlink" viewBox="0 0 275.87 25"><defs><style>.cls-1{fill:url(#linear-gradient);}.cls-2{fill:#fff;}.cls-3{fill:url(#linear-gradient-2);}.cls-4{fill:#5ea7da;}</style><linearGradient id="linear-gradient" x1="102.93" x2="102.93" y2="25" gradientUnits="userSpaceOnUse"><stop offset="0" stop-color="#29a9e1"/><stop offset="1" stop-color="#0d72b9"/></linearGradient><linearGradient id="linear-gradient-2" x1="148.39" y1="-0.4" x2="128.12" y2="24.61" gradientUnits="userSpaceOnUse"><stop offset="0" stop-color="#faaf3a"/><stop offset="0.46" stop-color="#e3496f"/><stop offset="1" stop-color="#8a52a0"/></linearGradient></defs><title>Political Frame 10</title><path class="cls-1" d="M97.7,0h10.47a7.26,7.26,0,0,1,7.26,7.26V17.74A7.26,7.26,0,0,1,108.17,25H97.7a7.27,7.27,0,0,1-7.27-7.27V7.26A7.26,7.26,0,0,1,97.7,0Z"/><path class="cls-2" d="M335.17,975.31h-2.92v-7.26H329.8v-2.81h2.44V963.1a4.3,4.3,0,0,1,.37-1.8,3.13,3.13,0,0,1,2.58-1.84,13.61,13.61,0,0,1,2.78,0l.08,0V962h-1.5a1.51,1.51,0,0,0-.3,0,1,1,0,0,0-1.07,1.14c0,.67,0,1.34,0,2H338V968h-2.79Z" transform="translate(-230.99 -954.85)"/><path class="cls-3" d="M132.7,0h10.47a7.26,7.26,0,0,1,7.26,7.26V17.73A7.27,7.27,0,0,1,143.17,25H132.7a7.26,7.26,0,0,1-7.26-7.26V7.26A7.26,7.26,0,0,1,132.7,0Z"/><path class="cls-2" d="M368.93,974.23c-.72,0-1.45,0-2.17,0a7.71,7.71,0,0,1-1.79-.17,3.55,3.55,0,0,1-2.35-1.71,4,4,0,0,1-.49-1.58,21.23,21.23,0,0,1-.09-2.52c0-.93,0-1.86,0-2.79a10.52,10.52,0,0,1,.11-1.77,3.66,3.66,0,0,1,1.61-2.54,3.76,3.76,0,0,1,1.74-.59q1.1-.07,2.19-.09c1.06,0,2.13,0,3.19,0a10.08,10.08,0,0,1,1.82.14,3.56,3.56,0,0,1,2.53,1.77,4.18,4.18,0,0,1,.51,1.73c.08.93.07,1.86.07,2.79s0,1.72,0,2.58a8.14,8.14,0,0,1-.16,1.78A3.56,3.56,0,0,1,373,974a6.47,6.47,0,0,1-1.57.18l-2.49,0Zm0-1.22v0h2.16a7.33,7.33,0,0,0,1.48-.12,2.32,2.32,0,0,0,1.87-1.85,6.78,6.78,0,0,0,.14-1.68c0-1.14,0-2.27,0-3.4a13.34,13.34,0,0,0-.1-2,2.36,2.36,0,0,0-2-2.1,8.62,8.62,0,0,0-1.6-.12H368a18.78,18.78,0,0,0-2.37.09,2.66,2.66,0,0,0-1.22.42,2.4,2.4,0,0,0-1,1.59,8.53,8.53,0,0,0-.11,1.51c0,1.47,0,2.93,0,4.4a6,6,0,0,0,.12,1.26,2.31,2.31,0,0,0,1.51,1.78,4.4,4.4,0,0,0,1.36.22Z" transform="translate(-230.99 -954.85)"/><path class="cls-2" d="M368.92,970.89a3.54,3.54,0,1,1,3.55-3.47A3.54,3.54,0,0,1,368.92,970.89Zm2.3-3.53a2.3,2.3,0,1,0-2.34,2.28A2.29,2.29,0,0,0,371.22,967.36Z" transform="translate(-230.99 -954.85)"/><path class="cls-2" d="M373.43,963.68a.83.83,0,1,1-1.65,0,.83.83,0,0,1,1.65,0Z" transform="translate(-230.99 -954.85)"/><rect class="cls-4" x="160.43" width="25" height="25" rx="7.26"/><path class="cls-2" d="M396.06,972.31a6.47,6.47,0,0,0,4.75-1.33l-.42-.05a3.06,3.06,0,0,1-1.16-.42,3.18,3.18,0,0,1-1.4-1.73s0-.06.05,0a2.94,2.94,0,0,0,.59,0,3.23,3.23,0,0,0,.76-.1v0l-.1,0a3.22,3.22,0,0,1-1.49-.84,3.16,3.16,0,0,1-.91-1.69,2.88,2.88,0,0,1-.06-.59c0-.07,0-.07.06,0a3,3,0,0,0,1.28.37s.06,0,.08,0,0,0,0,0a3.2,3.2,0,0,1-1.2-1.63,2.9,2.9,0,0,1-.16-.87,3.11,3.11,0,0,1,.41-1.72c0-.05,0,0,.07,0a7.1,7.1,0,0,0,.79.85,9.19,9.19,0,0,0,1.82,1.34,9.34,9.34,0,0,0,1.55.68,8.12,8.12,0,0,0,1.53.37c.29,0,.57.07.86.1.05,0,.07,0,.05-.06a3.14,3.14,0,0,1-.07-.68,2.81,2.81,0,0,1,.14-.92,3.23,3.23,0,0,1,5.41-1.34.11.11,0,0,0,.12,0,6.38,6.38,0,0,0,1.93-.74,0,0,0,0,1,.05,0,3.13,3.13,0,0,1-.54,1,3.57,3.57,0,0,1-.84.76,6.33,6.33,0,0,0,1.8-.49.54.54,0,0,1-.07.13,6.68,6.68,0,0,1-1.07,1.18,4.23,4.23,0,0,1-.41.33.09.09,0,0,0-.05.09c0,.11,0,.22,0,.33a8.88,8.88,0,0,1-.25,2.11,9.39,9.39,0,0,1-.88,2.33,9.27,9.27,0,0,1-1.18,1.73,9,9,0,0,1-1.54,1.41,8.66,8.66,0,0,1-2.43,1.22,10,10,0,0,1-1.53.34,9.65,9.65,0,0,1-1.07.09c-.29,0-.57,0-.85,0a9.63,9.63,0,0,1-1.92-.32,9.07,9.07,0,0,1-2-.8l-.5-.29Z" transform="translate(-230.99 -954.85)"/><rect class="cls-2" x="202.96" y="12.14" width="72.91" height="1.97"/><rect class="cls-2" y="12.14" width="72.91" height="1.97"/></svg>