<svg id="Layer_1" data-name="Layer 1" xmlns="http://www.w3.org/2000/svg" viewBox="0 0 1000.24 42.54"><defs><style>.cls-1,.cls-2,.cls-3{fill:none;stroke-miterlimit:10;stroke-width:3px;}.cls-1{stroke:#f4f4f4;}.cls-2{stroke:#37b34a;}.cls-3{stroke:#f6921e;}.cls-4{fill:#f05a28;}</style></defs><title>Political Frame 09</title><path class="cls-1" d="M0,800H73q9.61,0,19.23-.62l104-6.65a300.53,300.53,0,0,1,84.22,6.49h0a300.94,300.94,0,0,0,98.34,5.25l18.59-2.08a301.38,301.38,0,0,1,60.88-.59l58.83,5.4a300.79,300.79,0,0,0,60.82-.58l101.88-11.35a301,301,0,0,1,94,4.35l44.25,9.12a301,301,0,0,0,109.69,2.18L1000,799" transform="translate(0 -781.52)"/><path class="cls-2" d="M0,807.63H73q9.61,0,19.23-.62l104-6.66a300.9,300.9,0,0,1,84.22,6.49h0a300.67,300.67,0,0,0,98.34,5.25L397.37,810a299.93,299.93,0,0,1,60.88-.59l58.83,5.4a300.79,300.79,0,0,0,60.82-.59L679.78,802.9a301,301,0,0,1,94,4.34l44.25,9.13a301,301,0,0,0,109.69,2.18L1000,806.63" transform="translate(0 -781.52)"/><path class="cls-3" d="M0,790.91H73q9.61,0,19.23-.62l104-6.65a300.9,300.9,0,0,1,84.22,6.48h0a300.4,300.4,0,0,0,98.34,5.25l18.59-2.07a301.38,301.38,0,0,1,60.88-.59l58.83,5.4a300.79,300.79,0,0,0,60.82-.58l101.88-11.35a300.72,300.72,0,0,1,94,4.35l44.25,9.12a301,301,0,0,0,109.69,2.18L1000,789.91" transform="translate(0 -781.52)"/><path class="cls-4" d="M764.7,900" transform="translate(0 -781.52)"/></svg>